<svg width="36" height="36" viewBox="0 0 36 36" fill="none" xmlns="http://www.w3.org/2000/svg">
<path d="M18.6303 1.13623C20.6337 1.14298 22.2919 1.27902 24.7518 1.73995C31.5366 3.00696 35.0779 6.82489 35.0779 14.0819V21.9178C35.0779 29.1749 31.5366 32.9916 24.7518 34.261C22.4651 34.6881 20.2223 34.8635 18.2087 34.8635H17.7983C15.7972 34.8568 14.1367 34.7206 11.6768 34.261C4.89201 32.9928 1.35065 29.1749 1.35065 21.9168V14.0808C1.35065 6.82489 4.89201 3.00696 11.6768 1.73995C13.8349 1.33963 16.025 1.13756 18.2198 1.13623H18.6303ZM13.4295 29.7594L4.95048 30.9027C6.41198 32.2518 8.35804 33.1851 10.774 33.7527L11.2485 33.8584C11.4081 33.8922 11.57 33.9247 11.7341 33.955C14.1738 34.4116 15.8151 34.5465 17.7994 34.552H17.8995L13.4295 29.7594ZM23.0452 29.7391L18.5773 34.5498H18.6392C20.5061 34.5267 22.3683 34.3574 24.2088 34.0427L24.6945 33.955C24.8586 33.9247 25.0204 33.8922 25.1802 33.8584L25.6545 33.7527C28.1188 33.1738 30.093 32.2159 31.5657 30.8208L23.0452 29.7391ZM18.2367 24.9903L13.7454 29.6404L18.2379 34.4576L22.7292 29.6211L18.2367 24.9903ZM6.85944 23.0433L4.91449 30.5936L13.2519 29.4693L11.3744 24.7993L6.85944 23.0433ZM1.66318 18.2068V21.9168C1.66318 25.7323 2.65252 28.5645 4.59972 30.5611L6.56488 22.9286L6.43672 22.879L6.39401 22.6711L1.66318 18.2068ZM34.7655 18.1394L30.0547 22.6193L30.0133 22.833L29.8817 22.8848L31.849 30.5409C33.7356 28.5936 34.717 25.8549 34.7631 22.19L34.7655 21.9178V18.1394ZM29.5883 23.0004L25.053 24.7993L23.2206 29.4481L31.5142 30.5004L29.5883 23.0004ZM17.9714 24.8161H11.7184L13.5554 29.3874L17.9714 24.8161ZM24.7102 24.8161H18.5043L22.9171 29.366L24.7102 24.8161ZM24.7641 11.4939H11.6633V24.5059H24.7641V11.4939ZM11.3508 18.2979L6.8156 22.6374L6.86843 22.688L6.87631 22.7137L11.3508 24.4565V18.2979ZM25.0766 18.2516V24.4541L29.5703 22.6723L29.5782 22.6419L29.6298 22.5923L25.0766 18.2516ZM6.53002 13.5928L1.89816 17.9976L6.58962 22.4249L11.1821 18.0281L6.53002 13.5928ZM29.8805 13.5445L25.2452 17.9808L29.8548 22.3765L34.5294 17.9313L29.8805 13.5445ZM4.57384 5.46568C2.64353 7.46123 1.66207 10.2842 1.66207 14.0819V17.7919L6.39174 13.2927L6.41424 13.1802L6.56375 13.1195L4.57384 5.46568ZM11.3508 11.5546L6.75826 13.3759L6.75713 13.3781L11.3508 17.7582V11.5546ZM31.65 5.25883L29.8401 13.0734L29.9931 13.133L30.0155 13.2421L34.7655 17.7244V14.0819C34.7655 10.1515 33.7141 7.26334 31.65 5.25883ZM25.0766 11.5546V17.7121L29.6524 13.3331L25.0766 11.5546ZM4.91338 5.52976L6.85831 13.0015L11.3744 11.2106L13.2361 6.48875L4.91338 5.52976ZM31.3296 5.25433L23.1452 6.4629L25.0542 11.2106L29.5454 12.9576L31.3296 5.25433ZM13.5105 6.64503L11.7229 11.1836H17.9119L13.5105 6.64503ZM22.872 6.62479L18.4684 11.1836H24.7056L22.872 6.62479ZM18.203 1.53983L13.6611 6.35271L18.1895 11.0228L22.719 6.3336L18.1997 1.54096L18.203 1.53983ZM17.8601 1.44989C15.8052 1.47177 13.7559 1.67115 11.7353 2.04573C8.801 2.59325 6.49406 3.61969 4.83243 5.20824L13.3834 6.19308L17.8601 1.44989ZM18.6303 1.44765H18.5436L22.999 6.17171L31.3094 4.94404C29.6736 3.50502 27.4635 2.56176 24.6955 2.04463C22.256 1.58818 20.6169 1.45327 18.6303 1.44765Z" stroke="#BEBEBE" stroke-width="0.75" stroke-linejoin="bevel"/>
</svg>
