<svg width="26" height="37" viewBox="0 0 26 37" fill="none" xmlns="http://www.w3.org/2000/svg">
<path d="M13.4396 0.434864C20.1031 0.621568 25.3805 8.86926 25.2576 18.8359C25.1348 28.8037 19.6538 36.7516 12.989 36.5649C6.32415 36.3782 1.04812 28.1316 1.17099 18.1637C1.29385 8.19592 6.77345 0.248159 13.4396 0.434864ZM21.2513 31.4381H16.6955L13.5215 36.2445C16.5003 36.13 19.2142 34.329 21.2513 31.4381ZM9.7355 31.4381H5.1762C7.22638 34.3483 9.96918 36.1613 12.9951 36.2469L12.9071 36.2433L9.73309 31.4381H9.7355ZM13.2143 29.2976L10.0234 31.3212L13.2155 36.1517L16.4052 31.3212L13.2143 29.2976ZM21.373 24.1217L18.1385 26.1742L16.8087 31.1189H21.373V24.1217ZM5.05574 24.1217V31.1201H9.61986L8.29002 26.1742L5.05574 24.1217ZM8.66704 26.4127L9.90775 31.0249L12.9204 29.1121L8.66704 26.4127ZM17.7603 26.4127L13.5083 29.1109L16.5208 31.0237L17.7603 26.4127ZM1.47215 18.9335C1.54442 23.5348 2.78031 27.7112 4.75581 30.8093V23.9022L1.47215 18.9335ZM24.9553 18.9335L21.6741 23.901V30.8081C23.6568 27.698 24.8999 23.4927 24.9577 18.8311L24.9553 18.9335ZM13.2131 8.03812L8.52731 10.9652L6.5229 18.4348L8.54659 25.9646L13.2143 28.9266L17.882 25.9646L19.9056 18.436L17.9024 10.9652L13.2131 8.03812ZM6.36631 19.0166L5.09067 23.7721L8.16956 25.7273L6.36631 19.0166ZM20.0622 19.019L18.259 25.7249L21.338 23.7733L20.0622 19.019ZM4.85338 13.3852L1.49865 18.4167L4.85338 23.4951L6.21092 18.436L4.85338 13.3852ZM21.5765 13.3864L20.2176 18.4372L21.5753 23.4951L24.93 18.4167L21.5765 13.3864ZM21.6729 6.1903V12.9805L24.9529 17.8999C24.8541 13.3659 23.6243 9.24992 21.6729 6.1903ZM4.75461 6.1903C2.77188 9.30172 1.52997 13.5069 1.47094 18.1698L1.47576 17.8987L4.75461 12.9805V6.1903ZM8.1515 11.1989L5.09188 13.1106L6.36631 17.8542L8.1515 11.1989ZM18.2758 11.1989L20.061 17.853L21.3368 13.1106L18.2758 11.1989ZM9.57891 5.87953H5.05574V12.7637L8.27195 10.7556L9.57891 5.87953ZM21.373 5.87953H16.8485L18.1566 10.7556L21.373 12.7637V5.87953ZM9.87282 5.9518L8.64536 10.5207L12.918 7.8526L9.87282 5.9518ZM16.5558 5.9518L13.5095 7.85139L17.782 10.5195L16.5558 5.9518ZM13.2143 0.846818L10.0029 5.66269L13.2131 7.6683L16.4257 5.66269L13.2143 0.846818ZM13.5227 0.756478L16.7268 5.5603H21.2513C19.2009 2.65128 16.4582 0.838387 13.4324 0.754069L13.5227 0.756478ZM12.9071 0.756478C9.92943 0.87091 7.21434 2.67175 5.1774 5.5603H9.70177L12.9071 0.756478Z" stroke="#BEBEBE" stroke-width="0.75" stroke-linejoin="bevel"/>
</svg>
