<svg width="22" height="34" viewBox="0 0 22 34" fill="none" xmlns="http://www.w3.org/2000/svg">
<path d="M11.2172 0.0883623C13.4244 0.0310904 15.6746 0.819784 17.5522 2.32469C18.5124 3.0843 19.3298 4.00178 20.0034 5.03367C20.7055 6.13709 21.2073 7.3407 21.5082 8.63035C22.0529 11.0096 21.9521 14.0346 21.2211 17.4028C20.6192 20.1115 19.6021 23.0497 18.4125 25.4575C16.5923 29.1554 14.7711 30.8328 12.6499 32.7964C12.263 33.1546 11.8622 33.5277 11.4467 33.9145L11.2709 33.728L11.2016 33.688L11.1743 33.7046L10.9721 33.9136C10.5566 33.5267 10.1549 33.1546 9.76801 32.7964C7.64675 30.8471 5.82657 29.1554 4.0063 25.4575C2.81674 23.0497 1.79902 20.1116 1.21137 17.4028C0.466061 14.0346 0.38059 11.0096 0.925241 8.63035C1.22624 7.34055 1.72788 6.13622 2.43012 5.0327C3.0894 4.0009 3.92112 3.08423 4.8813 2.32469C6.7589 0.834098 9.02334 0.0310312 11.2163 0.0883623L11.2084 0.420393L11.2172 0.412581V0.0883623ZM8.44575 28.272L11.2026 32.9985L13.9594 28.271L11.1948 26.2104L8.44575 28.272ZM7.21333 29.2397C8.0051 30.1952 8.83142 30.9947 9.73774 31.8393L7.9018 28.6919L7.21333 29.2397ZM12.6665 31.8393C13.5738 30.9985 14.4014 30.1995 15.1938 29.2436L14.5014 28.6929L12.6665 31.8393ZM14.9194 28.1528L15.6196 28.7095C16.2843 27.8421 16.928 26.8351 17.5795 25.5659L14.9194 28.1528ZM4.83833 25.5815C5.4861 26.843 6.12687 27.8433 6.78755 28.7055L7.48286 28.1528L4.83833 25.5815ZM8.23969 27.5805L10.684 25.7388L7.29731 22.3081L8.23969 27.5805ZM11.7153 25.7436L14.1665 27.5708L15.1069 22.3071L11.7153 25.7436ZM4.18891 24.0024L7.477 27.1987L6.44673 21.437L3.99848 18.4399L4.18891 24.0024ZM15.9575 21.435L14.9272 27.1987L18.2153 24.0014L18.4057 18.4389L15.9575 21.435ZM7.07563 8.43602L5.32173 13.7544L7.07954 21.1059L11.2016 25.2827L15.3237 21.1059L17.0756 13.7788L15.311 8.42918L11.1948 6.40379L7.07563 8.43602ZM18.9565 22.4682C19.4698 21.1349 19.9189 19.7374 20.267 18.3716L19.1108 17.9438L18.9565 22.4682ZM2.14594 18.3677C2.49114 19.7251 2.93684 21.1141 3.44575 22.4409L3.29145 17.9438L2.14594 18.3677ZM15.6274 21.2837L15.6362 21.2856L15.6254 21.2768L15.6196 21.2759L15.6274 21.2837ZM16.3002 19.935L18.3901 17.3794L17.5024 14.9087L16.3002 19.935ZM4.01704 17.3833L6.09809 19.9311L4.89399 14.9331L4.01704 17.3833ZM19.2465 17.2593L20.4311 17.6977C20.4663 17.5461 20.5011 17.3949 20.5336 17.2446C20.8542 15.7827 21.0499 14.3895 21.1225 13.0923L19.2465 17.2593ZM1.29536 13.1235C1.36874 14.4161 1.56598 15.8036 1.8852 17.2593C1.91631 17.4031 1.94829 17.5478 1.98188 17.6929L3.15669 17.2583L1.29536 13.1235ZM1.38032 11.6225L3.59321 16.5386L4.60591 13.7065L3.45747 9.63524L1.38032 11.6225ZM17.7973 13.7065L18.8129 16.5347L21.02 11.6313L18.9418 9.64305L17.7973 13.7065ZM17.4067 12.5679L18.3422 9.24559L16.1245 8.68114L17.4067 12.5679ZM4.06001 9.24559L4.99067 12.5454L6.26411 8.68407L4.06001 9.24559ZM19.2778 9.02586L21.1118 10.7807C21.0607 10.0678 20.9647 9.39663 20.8198 8.77391C20.7552 8.48514 20.6784 8.20127 20.5903 7.92235L19.2778 9.02586ZM1.83637 7.92918C1.74649 8.21054 1.66666 8.49716 1.59809 8.78856C1.45624 9.39823 1.36089 10.0542 1.30903 10.7505L3.11958 9.01805L1.83637 7.92918ZM3.97895 8.56297L6.51899 7.91551L7.60395 4.35692L4.12348 4.24071L3.97895 8.56297ZM14.7846 4.35789L15.8686 7.91258L18.4096 8.56004L18.2651 4.24071L14.7846 4.35789ZM19.0883 8.28172L20.3403 7.22801C20.0858 6.58616 19.7719 5.97194 19.4008 5.3911C19.2644 5.1802 19.1198 4.97573 18.9702 4.77586L19.0883 8.28172ZM3.41548 4.82567C3.27707 5.01446 3.14358 5.2072 3.01801 5.40575C2.64651 5.98723 2.33468 6.60101 2.08149 7.24364L3.29926 8.26903L3.41548 4.82567ZM7.35395 7.54051L10.52 5.97313L8.26606 4.54832L7.35395 7.54051ZM11.8774 5.97508L15.0307 7.52586L14.1245 4.55418L11.8774 5.97508ZM8.59419 3.94774L11.2006 5.59422L13.8159 3.94188L11.2075 0.978011L8.59419 3.94774ZM7.01313 1.76121C6.42261 2.06184 5.85205 2.42827 5.31098 2.85496C5.03013 3.07787 4.76328 3.31613 4.50825 3.5659L7.60786 3.66942L7.01313 1.76121ZM14.7963 3.66942L17.9155 3.56492C17.6579 3.31008 17.3893 3.06731 17.1079 2.84032C16.5645 2.40736 15.9897 2.03839 15.395 1.7368L14.7963 3.66942ZM14.1821 3.32664L14.7631 1.44676C13.8441 1.06233 12.8891 0.832813 11.936 0.773909L14.1821 3.32664ZM10.4526 0.791487C9.50203 0.854379 8.55465 1.08562 7.64399 1.46922L8.22212 3.32469L10.4526 0.791487Z" fill="#BEBEBE"/>
</svg>
