<svg width="36" height="36" viewBox="0 0 36 36" fill="none" xmlns="http://www.w3.org/2000/svg">
<path d="M34.9155 1.13623C35.0052 1.13623 35.0779 1.21 35.0779 1.29853V34.7011C35.0779 34.7907 35.0042 34.8635 34.9155 34.8635H1.51295C1.46992 34.8635 1.42863 34.8464 1.39818 34.816C1.36775 34.7854 1.35065 34.7443 1.35065 34.7011V1.29853C1.35065 1.21 1.42441 1.13623 1.51295 1.13623H34.9155ZM30.1559 30.1732H6.27271L1.90715 34.5368H34.5214L30.1559 30.1732ZM1.67527 1.69063V34.3092L6.04083 29.9415V6.05829L1.67527 1.69063ZM34.7522 1.69273L30.3889 6.0562V29.9437L34.7522 34.307V1.69273ZM25.0956 25.112H11.3318L6.5963 29.8466H29.8324L25.0956 25.112ZM6.36652 6.38082V29.6167L11.102 24.8802V11.1184L6.36652 6.38082ZM30.0619 6.38082L25.3245 11.1195V24.8781L30.0619 29.6167V6.38082ZM24.9997 11.2133H11.4267V24.7843H24.9988L24.9997 11.2133ZM29.8324 6.15001H6.5963L11.3339 10.8876H25.0946L29.8324 6.15001ZM34.5224 1.4598H1.90609L6.27061 5.82642H30.1581L34.5224 1.4598Z" stroke="#BEBEBE" stroke-width="0.75" stroke-linejoin="bevel"/>
</svg>
