<svg width="36" height="35" viewBox="0 0 36 35" fill="none" xmlns="http://www.w3.org/2000/svg">
<path d="M30.7589 0.63623L30.8755 0.684581L35.0295 4.80716L35.0779 4.9241V29.9069L35.0295 30.024L30.7052 34.3151L30.5874 34.3635H5.66957L5.55188 34.3151L1.39905 30.1936L1.35065 30.0768V5.09384L1.39905 4.97693L5.72346 0.684581L5.84114 0.63623H30.7589ZM27.9579 30.8942H8.34759L5.99841 34.0342H30.2607L27.9579 30.8942ZM5.29893 28.0194L1.78178 30.1093L5.64868 33.9487L8.04404 30.7458L5.29893 28.0194ZM31.1275 27.898L28.2592 30.7467L30.6071 33.9453L34.6424 29.9407L31.1275 27.898ZM18.2143 27.8226L8.97229 30.5658H27.3464L18.2143 27.8226ZM26.9569 27.0873L18.751 27.7226L27.795 30.4208L26.9569 27.0873ZM9.46938 27.0873L8.52465 30.4186L17.6633 27.726L9.46938 27.0873ZM9.11305 27.1268L5.65637 27.9069L8.18153 30.414L9.11305 27.1268ZM27.3057 27.1167L28.1337 30.4073L30.7656 27.7934L27.3057 27.1167ZM1.68168 5.38052V29.7855L5.16036 27.7192V7.40192L1.68168 5.38052ZM34.7457 5.21415L31.2682 7.2805V27.599L34.7457 29.6202V5.21415ZM8.308 18.3452L5.56398 27.5911L9.16805 26.777L8.308 18.3452ZM28.1229 18.3452L27.2604 26.7727L30.8647 27.4776L28.1229 18.3452ZM18.354 7.52671L9.16694 7.9809L8.55106 17.483L9.49797 26.7602L18.1901 27.4752L26.9294 26.7602L27.8776 17.5078L27.4001 7.97979L18.354 7.52671ZM5.49139 8.43735V26.6715L8.21232 17.4999L5.49139 8.43735ZM30.9372 8.32829L28.2151 17.4999L30.936 26.5636L30.9372 8.32829ZM5.55849 7.50761L8.28049 16.5712L8.83591 7.97078L5.55849 7.50761ZM30.8668 7.39631L27.7324 7.96517L28.158 16.5274L30.8668 7.39631ZM8.60495 4.56095L9.14936 7.65263L17.748 7.24564L8.60495 4.56095ZM27.9634 4.56432L18.9512 7.24678L27.4233 7.6515L27.9634 4.56432ZM8.27719 4.6093L5.67728 7.19057L8.8095 7.63464L8.27719 4.6093ZM28.2889 4.62617L27.7632 7.62452L30.7613 7.08151L28.2889 4.62617ZM27.4893 4.43392H9.09325L18.354 7.17708L27.4893 4.43392ZM5.82023 1.05221L1.78397 5.05901L5.29893 7.10062L8.16941 4.25066L5.82023 1.05221ZM30.7765 1.05221L28.3811 4.25293L31.1285 6.98033L34.6445 4.89037L30.7765 1.05221ZM30.4291 0.965625H6.16779L8.47187 4.10453H28.081L30.4291 0.965625Z" stroke="#BEBEBE" stroke-width="0.75" stroke-linejoin="bevel"/>
</svg>
