<svg width="36" height="35" viewBox="0 0 36 35" fill="none" xmlns="http://www.w3.org/2000/svg">
<path d="M18.2506 0.636798L18.5289 0.639207M18.5289 0.639207C27.8412 0.813601 35.2482 8.50272 35.075 17.8164C34.9018 27.1266 27.2117 34.5348 17.9007 34.3604C8.58856 34.1884 1.18041 26.4981 1.35362 17.1869C1.52802 7.87441 9.21687 0.465993 18.5289 0.639207ZM13.382 29.2312L6.75982 29.4689C9.76287 32.3512 13.7438 33.9925 17.9055 34.0643H17.9186L13.382 29.2312ZM23.0932 29.2109L18.578 34.0631C22.7434 33.9768 26.722 32.3191 29.7165 29.4224L23.0932 29.2109ZM18.2113 27.1634L13.6388 29.07L18.247 33.9807L22.8243 29.064L18.2113 27.1634ZM6.79805 22.4631L6.58424 29.1762L13.2673 28.9373L11.3502 24.3385L6.79805 22.4631ZM29.6495 22.3985L25.0628 24.3099L23.1659 28.9158L29.8909 29.1309L29.6495 22.3985ZM1.65223 17.8629C1.73823 22.0289 3.39588 26.0083 6.29279 29.003L6.50301 22.3783L1.65223 17.8629ZM34.7775 17.7974L29.9446 22.3318L30.1836 28.9541C33.0651 25.9512 34.7059 21.9704 34.7775 17.8092V17.7974ZM11.7396 24.4985L13.5289 28.7927L17.8231 27.0035L11.7396 24.4985ZM24.6745 24.471L18.6007 27.0023L22.9031 28.7737L24.6745 24.471ZM18.1731 8.09419L11.5509 10.8535L8.81911 17.4879L11.5783 24.1092L18.2125 26.8421L24.8335 24.0829L27.5664 17.4473L24.8072 10.826L18.1731 8.09419ZM8.65905 17.8762L6.88764 22.1788L11.189 23.9502L8.65905 17.8762ZM27.7278 17.8366L25.2228 23.9215L29.5182 22.1311L27.7278 17.8366ZM6.60932 12.9583L1.73465 17.5333L6.60932 22.0726L8.4966 17.4867L6.60932 12.9583ZM29.7702 12.8818L27.8877 17.4485L29.8073 22.0533L34.6939 17.4664L29.7702 12.8818ZM6.24499 6.04798C3.36319 9.05084 1.72193 13.0314 1.64985 17.1928V17.2048L6.4827 12.6704L6.24499 6.04798ZM30.1345 6.00021L29.9244 12.6238L34.7751 17.1391C34.6891 12.9732 33.0314 8.99507 30.1345 6.00021ZM11.1615 11.0172L6.86733 12.8054L8.65666 17.0997L11.1615 11.0172ZM25.1953 10.9873L27.7254 17.0602L29.4968 12.76L25.1953 10.9873ZM6.53885 5.86999L6.77654 12.5199L11.3227 10.6266L13.1945 6.08142L6.53885 5.86999ZM29.8432 5.8234L23.1457 6.06231L25.0342 10.5979L29.6329 12.4924L29.8432 5.8234ZM13.4823 6.16265L11.7109 10.4641L17.7849 7.93413L13.4823 6.16265ZM22.8566 6.14355L18.5636 7.93292L24.647 10.4378L22.8566 6.14355ZM18.1814 1.01905L13.6364 5.90464L18.1754 7.77286L22.7359 5.87238L18.1814 1.01905ZM17.8518 0.937814C13.6864 1.02413 9.7077 2.68183 6.71325 5.57854L13.3366 5.78876L17.8518 0.937814ZM18.5243 0.937814H18.5123L23.0464 5.76965L29.67 5.53075C26.6671 2.64906 22.6853 1.00934 18.5243 0.937814Z" stroke="#BEBEBE" stroke-width="0.75" stroke-linejoin="bevel"/>
</svg>
