<svg width="120" height="35" viewBox="0 0 120 35" fill="none" xmlns="http://www.w3.org/2000/svg">
<g clip-path="url(#clip0_241_8030)">
<path d="M41.8287 7.54297H43.7229V26.743H41.8287V17.7738H31.5429V26.743H29.6572V7.54297H31.5515V15.9635H41.8372L41.8287 7.54297Z" fill="#3B3D3C"/>
<path d="M48.8677 24.9327H58.0683V26.743H46.9717V7.54297H57.9294V9.35325H48.8677V16.1555H57.2574V17.9658H48.8677V24.9327Z" fill="#3B3D3C"/>
<path d="M73.2202 26.743H71.0551L65.9122 18.5418L60.7694 26.743H58.6094L64.8322 16.8413L59.0139 7.54297H61.1517L65.9139 15.1133L70.6762 7.54297H72.8139L66.9974 16.8413L73.2202 26.743Z" fill="#3B3D3C"/>
<path d="M80.09 23.7258H87.8043V26.743H76.9717V7.54297H80.0831L80.09 23.7258Z" fill="#3B3D3C"/>
<path d="M101.899 26.743L100.572 22.8755H92.5151L91.1831 26.743H87.8008L94.6734 7.54297H98.4002L105.257 26.743H101.899ZM93.5368 19.9133H99.5368L96.5402 11.2458L93.5368 19.9133Z" fill="#3B3D3C"/>
<path d="M117.348 16.7861C118.151 17.2001 118.825 17.8262 119.297 18.5964C119.775 19.4003 120.019 20.3219 120 21.257C120.019 21.9904 119.881 22.7194 119.596 23.3956C119.312 24.0718 118.887 24.6798 118.349 25.1792C117.813 25.6921 117.181 26.0941 116.489 26.3624C115.797 26.6306 115.059 26.7599 114.317 26.7427H106.2V7.54268H113.722C114.447 7.52488 115.169 7.65017 115.845 7.91138C116.522 8.17258 117.14 8.56458 117.665 9.06496C118.186 9.54745 118.598 10.135 118.875 10.7887C119.151 11.4424 119.286 12.1473 119.27 12.857C119.27 14.5255 118.629 15.8352 117.348 16.7861ZM113.722 10.505H109.312V15.5518H113.722C114.046 15.5586 114.367 15.4974 114.665 15.3722C114.964 15.247 115.232 15.0606 115.454 14.825C115.909 14.3359 116.161 13.6928 116.161 13.025C116.161 12.3571 115.909 11.714 115.454 11.225C115.231 10.991 114.962 10.806 114.664 10.682C114.366 10.5581 114.045 10.4977 113.722 10.505ZM114.317 23.7804C114.66 23.7864 115 23.7199 115.315 23.5851C115.63 23.4504 115.913 23.2505 116.145 22.9987C116.623 22.479 116.889 21.7986 116.889 21.0924C116.889 20.3862 116.623 19.7057 116.145 19.1861C115.913 18.9342 115.63 18.7344 115.315 18.5996C115 18.4649 114.66 18.3984 114.317 18.4044H109.312V23.7804H114.317Z" fill="#3B3D3C"/>
<path d="M5.14258 24.403V16.7402L12.3426 12.7407L19.5426 16.7402V24.403L12.3426 28.4024L5.14258 24.403Z" fill="#FF480D"/>
<path d="M16.6286 9.23829V3.25714H18.8571V0H5.82857V3.25714H8.05714V9.23829L0 13.7143V27.4286L12.3429 34.2857L24.6857 27.4286V13.7143L16.6286 9.23829ZM6.85714 2.22857V1.02857H17.8286V2.22857H6.85714ZM23.6571 26.8234L12.3429 33.1097L1.02857 26.8234V14.3194L8.556 10.1366L9.08571 9.84343V3.25714H15.6V9.84343L16.1297 10.1366L23.6571 14.3194V26.8234Z" fill="#3B3D3C"/>
<path d="M12.0855 10.1144C12.7956 10.1144 13.3712 9.53876 13.3712 8.82868C13.3712 8.1186 12.7956 7.54297 12.0855 7.54297C11.3754 7.54297 10.7998 8.1186 10.7998 8.82868C10.7998 9.53876 11.3754 10.1144 12.0855 10.1144Z" fill="#FF480D"/>
<path d="M10.7138 5.65711C11.1399 5.65711 11.4852 5.31173 11.4852 4.88569C11.4852 4.45964 11.1399 4.11426 10.7138 4.11426C10.2878 4.11426 9.94238 4.45964 9.94238 4.88569C9.94238 5.31173 10.2878 5.65711 10.7138 5.65711Z" fill="#FF480D"/>
<path d="M13.7568 5.65717C13.9698 5.65717 14.1425 5.48448 14.1425 5.27146C14.1425 5.05843 13.9698 4.88574 13.7568 4.88574C13.5438 4.88574 13.3711 5.05843 13.3711 5.27146C13.3711 5.48448 13.5438 5.65717 13.7568 5.65717Z" fill="#FF480D"/>
<path d="M15.6002 13.0286C15.8843 13.0286 16.1145 12.7983 16.1145 12.5143C16.1145 12.2303 15.8843 12 15.6002 12C15.3162 12 15.0859 12.2303 15.0859 12.5143C15.0859 12.7983 15.3162 13.0286 15.6002 13.0286Z" fill="#FF480D"/>
<path d="M7.71448 14.4002C7.99851 14.4002 8.22877 14.1699 8.22877 13.8859C8.22877 13.6018 7.99851 13.3716 7.71448 13.3716C7.43045 13.3716 7.2002 13.6018 7.2002 13.8859C7.2002 14.1699 7.43045 14.4002 7.71448 14.4002Z" fill="#FF480D"/>
</g>
<defs>
<clipPath id="clip0_241_8030">
<rect width="120" height="34.2857" fill="white"/>
</clipPath>
</defs>
</svg>
