<svg width="16" height="17" viewBox="0 0 16 17" fill="none" xmlns="http://www.w3.org/2000/svg">
<path opacity="0.1" d="M8 15.7667C6.56279 15.7667 5.15786 15.3405 3.96286 14.5421C2.76787 13.7436 1.83648 12.6087 1.28648 11.2809C0.736486 9.95309 0.592582 8.492 0.872968 7.08241C1.15335 5.67281 1.84544 4.37802 2.8617 3.36176C3.87796 2.3455 5.17275 1.65341 6.58235 1.37303C7.99194 1.09264 9.45303 1.23655 10.7808 1.78654C12.1086 2.33654 13.2435 3.26793 14.042 4.46292C14.8405 5.65792 15.2667 7.06286 15.2667 8.50007C15.2649 10.4268 14.4987 12.274 13.1363 13.6364C11.774 14.9988 9.92669 15.7649 8 15.7667Z" fill="#A4ABBF"/>
<path d="M6.56896 1.30724C7.99149 1.02429 9.46628 1.17017 10.8063 1.72521C12.1461 2.28021 13.2915 3.21963 14.0973 4.42541C14.903 5.63127 15.3335 7.04935 15.3336 8.49963C15.3318 10.444 14.5581 12.3083 13.1832 13.6832C11.8083 15.0581 9.94399 15.8318 7.99963 15.8336C6.54935 15.8335 5.13127 15.403 3.92541 14.5973C2.71963 13.7915 1.78021 12.6461 1.22521 11.3063C0.670171 9.96628 0.524286 8.49149 0.807245 7.06896C1.09024 5.64654 1.78856 4.3396 2.81408 3.31408C3.8396 2.28856 5.14654 1.59024 6.56896 1.30724ZM7.99963 2.19006C6.75182 2.19013 5.53229 2.56034 4.49474 3.25353C3.45706 3.94689 2.64812 4.93255 2.17053 6.08557C1.693 7.23853 1.56769 8.50711 1.81115 9.73107C2.0546 10.9549 2.65544 12.0791 3.53771 12.9615C4.42019 13.844 5.54512 14.4456 6.76916 14.6891C7.99309 14.9325 9.26175 14.8072 10.4147 14.3297C11.5677 13.8521 12.5533 13.0432 13.2467 12.0055C13.94 10.9678 14.3102 9.74758 14.3102 8.49963C14.3083 6.82677 13.6425 5.22256 12.4596 4.03967C11.2766 2.85691 9.67245 2.19186 7.99963 2.19006ZM7.99963 7.54455C8.18048 7.54455 8.35413 7.6169 8.48205 7.74474C8.60998 7.87268 8.68224 8.04624 8.68224 8.22717V11.4059C8.68224 11.5868 8.60998 11.7604 8.48205 11.8883C8.35413 12.0161 8.18048 12.0885 7.99963 12.0885C7.81884 12.0884 7.64505 12.0161 7.51721 11.8883C7.38943 11.7604 7.31799 11.5867 7.31799 11.4059V8.22717C7.31799 8.04636 7.38943 7.87265 7.51721 7.74474C7.64505 7.6169 7.81884 7.54465 7.99963 7.54455ZM7.99963 4.91174C8.4705 4.91174 8.85304 5.29342 8.85314 5.76428C8.85314 6.23522 8.47057 6.61682 7.99963 6.61682C7.52885 6.61662 7.14709 6.2351 7.14709 5.76428C7.14719 5.29354 7.52892 4.91193 7.99963 4.91174Z" fill="#A4ABBF"/>
</svg>
