<svg width="18" height="15" viewBox="0 0 18 15" fill="none" xmlns="http://www.w3.org/2000/svg">
<path opacity="0.3" d="M11.4169 14.9334H4.22519C3.26666 14.9159 2.35411 14.5194 1.68724 13.8306C1.02036 13.1419 0.653474 12.217 0.666858 11.2584V3.83341C0.653492 2.87561 1.02064 1.95162 1.68775 1.26421C2.35485 0.576795 3.26742 0.182105 4.22519 0.166748H11.4169C12.3746 0.182105 13.2872 0.576795 13.9543 1.26421C14.6214 1.95162 14.9886 2.87561 14.9752 3.83341V8.55008C14.9852 8.63538 14.9771 8.72184 14.9513 8.80376C14.9255 8.88569 14.8827 8.96122 14.8256 9.02541C14.7685 9.08959 14.6985 9.14095 14.6202 9.17613C14.5418 9.21131 14.4569 9.22949 14.371 9.22949C14.2851 9.22949 14.2002 9.21131 14.1219 9.17613C14.0435 9.14095 13.9735 9.08959 13.9164 9.02541C13.8594 8.96122 13.8165 8.88569 13.7907 8.80376C13.765 8.72184 13.7568 8.63538 13.7669 8.55008V3.83341C13.7736 3.20194 13.5302 2.59345 13.09 2.14071C12.6497 1.68796 12.0483 1.42771 11.4169 1.41675H4.22519C3.59378 1.42771 2.99233 1.68796 2.55207 2.14071C2.11182 2.59345 1.86849 3.20194 1.87519 3.83341V11.2584C1.86847 11.8907 2.11153 12.5001 2.55156 12.9541C2.99158 13.4082 3.59303 13.6703 4.22519 13.6834H11.4169C11.8946 13.6799 12.3598 13.5302 12.7501 13.2547C13.1403 12.9791 13.437 12.5908 13.6002 12.1417C13.6288 12.0665 13.672 11.9976 13.7274 11.9392C13.7828 11.8808 13.8493 11.8339 13.9229 11.8014C13.9965 11.7688 14.0759 11.7512 14.1564 11.7495C14.2369 11.7479 14.3169 11.7622 14.3919 11.7917C14.4686 11.8244 14.5381 11.872 14.5964 11.9316C14.6547 11.9912 14.7007 12.0617 14.7316 12.1392C14.7626 12.2166 14.778 12.2994 14.7769 12.3828C14.7758 12.4662 14.7582 12.5485 14.7252 12.6251C14.4752 13.3015 14.0242 13.8852 13.4328 14.2978C12.8414 14.7104 12.138 14.9322 11.4169 14.9334Z" fill="#5E6278"/>
<path d="M16.7246 6.98389C16.7572 6.98389 16.7892 6.99632 16.8125 7.01904V7.02002C16.8358 7.04336 16.8495 7.07494 16.8496 7.10791C16.8496 7.14103 16.8359 7.17334 16.8125 7.19678L16.8057 7.20361L14.4238 9.68408C14.4005 9.70481 14.3711 9.71673 14.3398 9.71631C14.323 9.71607 14.3065 9.71243 14.291 9.70557C14.2755 9.69869 14.2615 9.68868 14.25 9.67627L14.2461 9.67334L11.8721 7.16455C11.8524 7.14188 11.8409 7.11353 11.8408 7.0835C11.8408 7.05726 11.8501 7.03237 11.8652 7.01123C11.887 6.99416 11.9134 6.98394 11.9414 6.98389C11.9729 6.98389 12.0033 6.99582 12.0264 7.01709L13.9727 9.04639L14.333 9.42236L14.6943 9.04639L16.6396 7.01709C16.6626 6.99572 16.6931 6.98398 16.7246 6.98389Z" fill="#A1A5B7" stroke="#5E6278"/>
</svg>
