<svg width="25" height="22" viewBox="0 0 25 22" fill="none" xmlns="http://www.w3.org/2000/svg">
<mask id="mask0_1762_8061" style="mask-type:luminance" maskUnits="userSpaceOnUse" x="0" y="0" width="25" height="22">
<path d="M0.660156 0.333008H24.6602V21.6663H0.660156V0.333008Z" fill="white"/>
</mask>
<g mask="url(#mask0_1762_8061)">
<path d="M20.6602 16.9263V17.5189C20.6602 18.5008 19.7648 19.2967 18.6602 19.2967H2.66016C1.55557 19.2967 0.660156 18.5008 0.660156 17.5189V8.03743C0.660156 7.05558 1.55557 6.25966 2.66016 6.25966H3.32683V13.9634C3.32683 15.5971 4.82216 16.9263 6.66016 16.9263H20.6602ZM24.6602 13.9634V4.48188C24.6602 3.50003 23.7648 2.7041 22.6602 2.7041H6.66016C5.55558 2.7041 4.66016 3.50003 4.66016 4.48188V13.9634C4.66016 14.9452 5.55558 15.7411 6.66016 15.7411H22.6602C23.7648 15.7411 24.6602 14.9452 24.6602 13.9634ZM11.3269 6.25966C11.3269 7.24151 10.4314 8.03743 9.32683 8.03743C8.22224 8.03743 7.32683 7.24151 7.32683 6.25966C7.32683 5.2778 8.22224 4.48188 9.32683 4.48188C10.4314 4.48188 11.3269 5.2778 11.3269 6.25966ZM7.32683 11.593L9.63995 9.53688C9.8352 9.36332 10.1518 9.36332 10.3471 9.53688L11.9935 11.0004L17.64 5.98132C17.8352 5.80777 18.1518 5.80777 18.3471 5.98132L21.9935 9.22262V13.3708H7.32683V11.593Z" fill="#4B5563"/>
</g>
</svg>
