<svg width="25" height="24" viewBox="0 0 25 24" fill="none" xmlns="http://www.w3.org/2000/svg">
<mask id="mask0_1762_8009" style="mask-type:luminance" maskUnits="userSpaceOnUse" x="0" y="0" width="25" height="24">
<path d="M0.156006 0H24.156V24H0.156006V0Z" fill="white"/>
</mask>
<g mask="url(#mask0_1762_8009)">
<path d="M21.906 21H2.40601C1.16335 21 0.156006 19.9927 0.156006 18.75V5.25C0.156006 4.00734 1.16335 3 2.40601 3H21.906C23.1487 3 24.156 4.00734 24.156 5.25V18.75C24.156 19.9927 23.1487 21 21.906 21ZM5.40601 5.625C3.95626 5.625 2.78101 6.80025 2.78101 8.25C2.78101 9.69975 3.95626 10.875 5.40601 10.875C6.85576 10.875 8.03101 9.69975 8.03101 8.25C8.03101 6.80025 6.85576 5.625 5.40601 5.625ZM3.15601 18H21.156V12.75L17.0537 8.64773C16.8341 8.42808 16.4779 8.42808 16.2582 8.64773L9.90601 15L7.30374 12.3977C7.08409 12.1781 6.72793 12.1781 6.50823 12.3977L3.15601 15.75V18Z" fill="#4B5563"/>
</g>
</svg>
