<svg width="25" height="24" viewBox="0 0 25 24" fill="none" xmlns="http://www.w3.org/2000/svg">
<mask id="mask0_1762_8035" style="mask-type:luminance" maskUnits="userSpaceOnUse" x="0" y="0" width="25" height="24">
<path d="M0.484375 0H24.4844V24H0.484375V0Z" fill="white"/>
</mask>
<g mask="url(#mask0_1762_8035)">
<path d="M12.4844 2.25C7.10828 2.25 2.73438 6.62391 2.73438 12C2.73438 17.3761 7.10828 21.75 12.4844 21.75C17.8605 21.75 22.2344 17.3761 22.2344 12C22.2344 6.62391 17.8605 2.25 12.4844 2.25ZM15.9892 12.4359L10.6244 15.6769C10.5461 15.7238 10.4613 15.7477 10.3701 15.7487C10.2788 15.7497 10.1936 15.7275 10.1143 15.6823C10.035 15.6371 9.97259 15.575 9.92698 15.4959C9.88138 15.4169 9.85885 15.3317 9.85938 15.2405V8.75953C9.85885 8.66827 9.88138 8.58312 9.92698 8.50408C9.97258 8.42503 10.035 8.3629 10.1143 8.31768C10.1936 8.27246 10.2788 8.25034 10.3701 8.25131C10.4613 8.25229 10.5461 8.27622 10.6244 8.32312L15.9892 11.5641C16.1525 11.6635 16.2341 11.8088 16.2341 12C16.2341 12.1912 16.1525 12.3365 15.9892 12.4359Z" fill="#4B5563"/>
</g>
</svg>
