<svg width="25" height="24" viewBox="0 0 25 24" fill="none" xmlns="http://www.w3.org/2000/svg">
<mask id="mask0_1762_8004" style="mask-type:luminance" maskUnits="userSpaceOnUse" x="0" y="0" width="25" height="24">
<path d="M0.828125 0H24.8281V24H0.828125V0Z" fill="white"/>
</mask>
<g mask="url(#mask0_1762_8004)">
<path d="M12.8281 2.25C7.45203 2.25 3.07812 6.62391 3.07812 12C3.07812 17.3761 7.45203 21.75 12.8281 21.75C18.2042 21.75 22.5781 17.3761 22.5781 12C22.5781 6.62391 18.2042 2.25 12.8281 2.25ZM17.9023 8.73234L11.6023 16.2323C11.5324 16.3156 11.4484 16.3806 11.3502 16.4273C11.252 16.4741 11.1486 16.4983 11.0398 16.5H11.0272C10.9209 16.5 10.8192 16.4783 10.7221 16.435C10.625 16.3917 10.5409 16.3306 10.4698 16.2516L7.76985 13.2516C7.62542 13.0984 7.55754 12.9166 7.56617 12.7063C7.5748 12.496 7.65737 12.3204 7.81385 12.1796C7.97032 12.0387 8.1536 11.9751 8.36369 11.9886C8.57377 12.0021 8.74739 12.0887 8.88453 12.2484L11.0075 14.6072L16.7539 7.76766C16.888 7.61261 17.0572 7.52695 17.2616 7.51066C17.4659 7.49438 17.6466 7.55216 17.8035 7.68401C17.9605 7.81586 18.0486 7.98384 18.0678 8.18793C18.0871 8.39202 18.0319 8.57349 17.9023 8.73234Z" fill="#F97316"/>
</g>
</svg>
