<svg width="36" height="35" viewBox="0 0 36 35" fill="none" xmlns="http://www.w3.org/2000/svg">
<mask id="mask0_1762_10983" style="mask-type:luminance" maskUnits="userSpaceOnUse" x="0" y="0" width="36" height="35">
<path d="M0.912598 0.125977H35.4475V34.6609H0.912598V0.125977Z" fill="white"/>
</mask>
<g mask="url(#mask0_1762_10983)">
<path fill-rule="evenodd" clip-rule="evenodd" d="M27.6234 23.8542H22.4971C21.9011 23.8542 21.4179 24.3374 21.4179 24.9334C21.4179 25.5294 21.9011 26.0126 22.4971 26.0126H27.6234C28.6641 26.0126 29.6405 25.8757 30.5527 25.6019C31.5048 25.3161 32.3372 24.8959 33.0499 24.3415C33.8113 23.7491 34.3966 23.0344 34.8058 22.1973C35.2338 21.322 35.4477 20.3544 35.4477 19.2945C35.4477 18.2329 35.2016 17.2562 34.7095 16.3645C34.2697 15.5676 33.6539 14.875 32.8621 14.2868C32.1622 13.7669 31.3652 13.3573 30.4712 13.058C29.9346 12.8784 29.3932 12.7479 28.8471 12.6668C28.645 11.4714 28.2909 10.3557 27.7847 9.31967C27.177 8.07576 26.3777 7.00059 25.3868 6.09416C24.4151 5.2053 23.3112 4.52549 22.075 4.05472C20.8397 3.58432 19.5415 3.34912 18.1803 3.34912C16.9367 3.34912 15.7583 3.54665 14.645 3.94171C13.6147 4.30733 12.6714 4.83025 11.8151 5.51047C11.023 6.13971 10.3394 6.87553 9.76413 7.71791C9.35589 8.31579 9.02041 8.93989 8.75769 9.59022C7.88359 9.72343 7.04965 9.94978 6.25589 10.2692C5.22092 10.6858 4.31495 11.2365 3.53798 11.9215C2.70991 12.6515 2.07234 13.4957 1.6253 14.454C1.15033 15.4722 0.912842 16.5731 0.912842 17.7566C0.912842 18.9498 1.16017 20.0702 1.65484 21.1179C2.12781 22.1196 2.79763 22.9946 3.66429 23.7432C4.50723 24.4712 5.47994 25.0309 6.58242 25.4222C7.69166 25.8158 8.85957 26.0126 10.0862 26.0126H13.8634C14.4594 26.0126 14.9426 25.5294 14.9426 24.9334C14.9426 24.3374 14.4594 23.8542 13.8634 23.8542H10.0862C9.10735 23.8542 8.18007 23.6988 7.30434 23.388C6.45658 23.0872 5.7135 22.6611 5.07512 22.1097C4.43902 21.5603 3.94953 20.9225 3.60663 20.1962C3.24972 19.4404 3.07127 18.6272 3.07127 17.7566C3.07127 16.8922 3.2413 16.0955 3.58137 15.3665C3.90137 14.6805 4.3627 14.0719 4.96534 13.5406C5.55708 13.0189 6.25588 12.5959 7.06176 12.2716C7.86747 11.9473 8.72977 11.7416 9.64866 11.6543C9.70094 11.6493 9.75257 11.6405 9.80356 11.628C9.85455 11.6155 9.90438 11.5994 9.95307 11.5796C10.0017 11.5598 10.0486 11.5366 10.0939 11.51C10.1391 11.4833 10.1822 11.4536 10.2232 11.4206C10.2641 11.3877 10.3024 11.352 10.3381 11.3135C10.3738 11.275 10.4065 11.2341 10.4362 11.1908C10.4659 11.1475 10.4924 11.1023 10.5155 11.0551C10.5386 11.008 10.5582 10.9594 10.5743 10.9094C10.796 10.2179 11.1201 9.55976 11.5466 8.9351C11.9991 8.27251 12.5361 7.69432 13.1577 7.20052C13.8261 6.66949 14.5625 6.26127 15.3668 5.97586C16.2467 5.66365 17.1845 5.50755 18.1803 5.50755C19.2768 5.50755 20.3189 5.69565 21.3068 6.07184C22.2864 6.4449 23.1608 6.98321 23.9299 7.68677C24.7191 8.40871 25.3576 9.26884 25.8454 10.2671C26.3615 11.3237 26.6863 12.4906 26.8198 13.7678C26.8265 13.8313 26.8387 13.8938 26.8564 13.9552C26.8741 14.0166 26.8972 14.0759 26.9255 14.1332C26.9537 14.1905 26.9868 14.2449 27.0247 14.2963C27.0627 14.3477 27.1048 14.3954 27.1512 14.4393C27.1976 14.4832 27.2475 14.5227 27.3009 14.5578C27.3544 14.5928 27.4104 14.6229 27.4692 14.6481C27.5279 14.6732 27.5884 14.6929 27.6507 14.7072C27.7129 14.7216 27.776 14.7304 27.8398 14.7335C28.4949 14.766 29.1436 14.8897 29.7859 15.1048C30.4626 15.3313 31.059 15.6362 31.575 16.0195C32.7179 16.8685 33.2893 17.9602 33.2893 19.2945C33.2893 20.7118 32.7677 21.8263 31.7244 22.6379C31.2241 23.0272 30.6266 23.3261 29.9321 23.5346C29.2224 23.7477 28.4528 23.8542 27.6234 23.8542Z" fill="#9CA3AF"/>
<path fill-rule="evenodd" clip-rule="evenodd" d="M21.734 18.1421L19.2595 15.6676V30.3579C19.2595 30.9539 18.7763 31.4371 18.1803 31.4371C17.5842 31.4371 17.101 30.9539 17.101 30.3579V15.6676L14.6265 18.1421C14.2051 18.5636 13.5217 18.5636 13.1003 18.1421C12.6788 17.7207 12.6788 17.0373 13.1003 16.6159L17.4171 12.299C17.4421 12.274 17.4683 12.2503 17.4956 12.2279C17.5229 12.2055 17.5513 12.1844 17.5807 12.1648C17.6101 12.1452 17.6403 12.127 17.6715 12.1103C17.7027 12.0937 17.7346 12.0786 17.7673 12.0651C17.7999 12.0515 17.8331 12.0396 17.867 12.0294C17.9008 12.0191 17.935 12.0105 17.9697 12.0036C18.0044 11.9968 18.0393 11.9916 18.0745 11.9881C18.1096 11.9846 18.1449 11.9829 18.1803 11.9829C18.2156 11.9829 18.2509 11.9846 18.286 11.9881C18.3212 11.9916 18.3561 11.9968 18.3908 12.0036C18.4255 12.0105 18.4597 12.0191 18.4935 12.0294C18.5274 12.0396 18.5606 12.0515 18.5932 12.0651C18.6259 12.0786 18.6578 12.0937 18.689 12.1103C18.7202 12.127 18.7504 12.1452 18.7798 12.1648C18.8092 12.1844 18.8376 12.2055 18.8649 12.2279C18.8922 12.2503 18.9184 12.274 18.9434 12.299L23.2603 16.6159C23.6817 17.0373 23.6817 17.7207 23.2603 18.1421C22.8388 18.5636 22.1554 18.5636 21.734 18.1421Z" fill="#9CA3AF"/>
</g>
</svg>
