<svg width="14" height="14" viewBox="0 0 14 14" fill="none" xmlns="http://www.w3.org/2000/svg">
<path d="M12.89 7.99996H3.43L7.66 12.23C7.7891 12.4243 7.84615 12.6578 7.82128 12.8898C7.79642 13.1218 7.6912 13.3378 7.52384 13.5004C7.35648 13.663 7.13753 13.762 6.90489 13.7802C6.67226 13.7983 6.44059 13.7346 6.25 13.6L0.31 7.65996C0.127281 7.48682 0.0165819 7.25114 0 6.99996C0.000257734 6.86591 0.0274634 6.73328 0.0799999 6.60996C0.128743 6.49077 0.200049 6.38211 0.29 6.28996L6.23 0.349959C6.4183 0.162982 6.67317 0.058466 6.93854 0.0594034C7.2039 0.0603418 7.45802 0.166656 7.645 0.354959C7.83198 0.543262 7.93649 0.798131 7.93556 1.06349C7.93462 1.32886 7.8283 1.58298 7.64 1.76996L3.43 5.99996H12.89C13.1552 5.99996 13.4096 6.10532 13.5971 6.29285C13.7846 6.48039 13.89 6.73474 13.89 6.99996C13.89 7.26518 13.7846 7.51953 13.5971 7.70707C13.4096 7.8946 13.1552 7.99996 12.89 7.99996Z" fill="black"/>
</svg>
