<svg width="47" height="47" viewBox="0 0 47 47" fill="none" xmlns="http://www.w3.org/2000/svg">
<path opacity="0.3" d="M21.7603 6.26696C22.1983 7.3729 22.9597 8.32102 23.945 8.98743C24.9303 9.65385 26.0937 10.0076 27.2833 10.0024H34.1583C36.3273 10.0019 38.4565 10.5845 40.3232 11.6892C42.1898 12.7939 43.7252 14.38 44.7687 16.2815C44.565 13.0815 43.1515 10.0787 40.815 7.88266C38.4785 5.6866 35.394 4.46171 32.1874 4.45654H20.9583L21.7603 6.26696Z" fill="#E1E3EA"/>
<path d="M21.7604 6.26685L20.9583 4.34185C20.516 3.23705 19.7542 2.28929 18.7704 1.61979C17.7866 0.950285 16.6254 0.58948 15.4354 0.583521H10.852C9.47176 0.580507 8.10446 0.849766 6.8284 1.37588C5.55234 1.902 4.39259 2.67464 3.41553 3.64957C2.43847 4.62449 1.66331 5.78256 1.13441 7.05747C0.605511 8.33238 0.33327 9.69909 0.333274 11.0794V34.3169C0.330254 35.9067 0.641169 37.4815 1.24818 38.9509C1.85519 40.4203 2.74636 41.7554 3.87055 42.8796C4.99474 44.0038 6.32983 44.8949 7.79923 45.5019C9.26864 46.109 10.8434 46.4199 12.4333 46.4169H34.0666C35.6564 46.4199 37.2312 46.109 38.7006 45.5019C40.17 44.8949 41.5051 44.0038 42.6293 42.8796C43.7535 41.7554 44.6447 40.4203 45.2517 38.9509C45.8587 37.4815 46.1696 35.9067 46.1666 34.3169V22.1023C46.1666 20.5133 45.8536 18.9398 45.2455 17.4718C44.6375 16.0038 43.7462 14.6699 42.6226 13.5463C41.499 12.4227 40.1651 11.5314 38.6971 10.9233C37.229 10.3152 35.6556 10.0023 34.0666 10.0023H27.1916C26.0177 9.98917 24.8744 9.62693 23.9071 8.96169C22.9399 8.29645 22.1925 7.35833 21.7604 6.26685Z" fill="#E1E3EA"/>
</svg>
